<?xml version="1.0" encoding="UTF-8" standalone="no"?>
<!-- Created with Inkscape (http://www.inkscape.org/) -->

<svg
   height="64"
   width="64"
   version="1.1"
   id="svg2"
   sodipodi:docname="btc.svg"
   inkscape:version="1.4.2 (ebf0e940d0, 2025-05-08)"
   xmlns:inkscape="http://www.inkscape.org/namespaces/inkscape"
   xmlns:sodipodi="http://sodipodi.sourceforge.net/DTD/sodipodi-0.dtd"
   xmlns="http://www.w3.org/2000/svg"
   xmlns:svg="http://www.w3.org/2000/svg">
  <defs
     id="defs2" />
  <sodipodi:namedview
     id="namedview2"
     pagecolor="#ffffff"
     bordercolor="#000000"
     borderopacity="0.25"
     inkscape:showpageshadow="2"
     inkscape:pageopacity="0.0"
     inkscape:pagecheckerboard="0"
     inkscape:deskcolor="#d1d1d1"
     inkscape:zoom="13.75"
     inkscape:cx="32"
     inkscape:cy="32.036364"
     inkscape:window-width="2520"
     inkscape:window-height="1288"
     inkscape:window-x="0"
     inkscape:window-y="0"
     inkscape:window-maximized="1"
     inkscape:current-layer="g2" />
  <g
     transform="translate(0.00630876,-0.00301984)"
     id="g2">
    <path
       id="path1"
       d="M 33.319863 0.03036359 C 18.455609 -0.60134539 4.6945819 9.2628636 0.95658186 24.264739 C -3.3194181 41.406739 7.1135037 58.770035 24.251504 63.044035 C 41.396504 67.319035 58.758754 56.886254 63.032754 39.743254 C 67.306754 22.599254 56.875972 5.2340511 39.731972 0.96005109 C 37.589472 0.42580109 35.443328 0.12060773 33.319863 0.03036359 z M 30.679238 11.15341 L 34.189004 12.02841 L 32.778847 17.680754 C 33.720847 17.895754 34.668347 18.112864 35.591347 18.342864 L 36.991738 12.727629 L 40.503457 13.602629 L 39.065957 19.370207 C 43.498957 20.897207 46.740066 23.186426 46.103066 27.444426 C 45.642066 30.561426 43.914644 32.069723 41.620644 32.598723 C 44.770644 34.238723 46.372254 36.754348 44.845254 41.114348 C 42.950254 46.529348 38.449441 46.985629 32.462441 45.852629 L 31.009316 51.676848 L 27.497597 50.801848 L 28.931191 45.055754 C 28.021191 44.829754 27.092316 44.589192 26.134316 44.329192 L 24.694863 50.102629 L 21.187051 49.227629 L 22.640176 43.393645 C 21.820176 43.183645 20.988222 42.96016 20.138222 42.74716 L 15.569863 41.608489 L 17.312051 37.588957 C 17.312051 37.588957 19.899785 38.276676 19.864785 38.225676 C 20.858785 38.471676 21.298207 37.823692 21.472207 37.391692 L 23.769082 28.186614 C 23.898082 28.217614 24.023176 28.24941 24.140176 28.27841 C 24.000176 28.22241 23.872941 28.186223 23.774941 28.161223 L 25.413613 21.59091 C 25.456613 20.84491 25.198894 19.904895 23.776894 19.549895 C 23.831894 19.512895 21.226113 18.915129 21.226113 18.915129 L 22.16166 15.165129 L 27.003457 16.374114 L 26.999551 16.391692 C 27.727551 16.572692 28.477738 16.745035 29.241738 16.919035 L 30.679238 11.15341 z M 31.833535 21.827239 L 30.085488 28.838957 C 32.067488 29.332957 38.177519 31.347926 39.167519 27.381926 C 40.198519 23.244926 33.815535 22.321239 31.833535 21.827239 z M 29.202676 32.376067 L 27.274941 40.104582 C 29.654941 40.695582 36.996582 43.052473 38.081582 38.692473 C 39.215582 34.145473 31.582676 32.970067 29.202676 32.376067 z "
       style="fill-rule:nonzero;fill:#dbdbdb;fill-opacity:1" />
  </g>
</svg>
