<?xml version="1.0" encoding="UTF-8"?>
<svg width="241" height="194" fill="none" version="1.1" viewBox="0 0 241 194" xmlns="http://www.w3.org/2000/svg">
 <mask id="mask0_1_219" x="-1" y="0" width="242" height="194" style="mask-type:luminance" maskUnits="userSpaceOnUse">
  <path d="m240.47 0.95898h-240.47v192.96h240.47v-192.96z" fill="#fff"/>
 </mask>
 <g fill="#dbdbdb" mask="url(#mask0_1_219)">
  <path d="m114.54 0.95898c-22.56-1e-8 -44.259 0.18346-61.713 2.3945-14.705 1.8753-27.946 8.7617-37.291 19.393-10.168 11.575-15.547 27.141-15.547 45.02 0 30.157 1.2043 57.145 15.979 82.062 16.688 28.427 45.159 44.082 80.162 44.082l-0.00586 0.00781h7.2715c45.641 0 69.468-26.285 79.605-41.953l0.08398-0.12695c3.148-4.966 5.809-10.01 7.957-15.078 28.775-7.026 49.422-32.874 49.422-63.76v-3.6367c0-18.1-6.1005-33.92-17.645-45.768-11.366-11.664-27.535-18.835-46.75-20.742-14.445-1.4445-24.815-1.8945-61.529-1.8945zm0 15.199c36.828 0 46.374 0.45626 60.014 1.8184 32.058 3.1804 50.697 22.96 50.697 51.381v3.6367c0 26.375-19.325 47.972-45.471 50.24-2.046 6.824-5.2259 13.639-9.5469 20.463-10.003 15.458-30.01 35.01-66.838 35.01h-7.2734c-30.011 0-53.2-12.956-67.068-36.6-12.278-20.685-13.867-43.651-13.867-74.34h0.00586c0-30.239 18.189-46.603 39.559-49.334 16.143-2.0464 36.151-2.2754 59.789-2.2754z"/>
  <path d="m114.54 33.209c-24.778 0-42.51 0.22704-55.922 2.2734-18.867 2.7306-26.375 13.413-26.375 32.508h0.00586c0 29.327 1.8199 48.194 11.367 65.699 10.91 20.235 30.689 27.963 53.199 27.963h7.0449c29.554 0 43.879-14.324 51.836-26.824 3.865-6.367 7.2718-13.411 9.0898-22.281l1.3633-5.6836h8.1856c18.189 0 33.875-14.773 33.875-33.646v-3.4082c0-21.141-13.182-32.286-36.148-35.01-12.956-1.1341-20.687-1.5898-57.521-1.5898zm57.305 20.01c11.594 0 17.961 6.8248 17.961 17.734s-6.3669 17.504-17.961 17.504c-3.6335 0-5.6796-2.0429-5.6836-4.7695v-25.691c0-2.7306 2.0466-4.7773 5.6836-4.7773zm-90.941 1.5918c9.3258 0 15.915 4.772 20.236 11.367 4.776-6.589 11.144-11.367 20.463-11.367 15.687 0 26.596 12.957 26.596 27.51 0 13.419-7.5004 25.012-17.275 34.104-6.14 6.138-16.138 12.506-22.961 16.598-1.825 1.135-4.0923 1.8203-6.8223 1.8203-2.2749 0-4.3229-0.68532-6.3691-1.8203-6.817-4.092-16.82-10.46-23.188-16.598-9.5475-9.098-17.049-20.691-17.049-34.104h-0.005859c0-14.552 10.46-27.51 26.375-27.51z"/>
 </g>
</svg>
