<?xml version="1.0" encoding="UTF-8" standalone="no"?>
<svg
   width="32"
   height="32"
   viewBox="0 0 32 32"
   fill="none"
   version="1.1"
   id="svg4"
   sodipodi:docname="guncad-index.svg"
   xml:space="preserve"
   inkscape:version="1.4.2 (ebf0e940d0, 2025-05-08)"
   inkscape:export-xdpi="1536"
   inkscape:export-ydpi="1536"
   inkscape:export-filename="guncad-index-infrastructure-secrets.png"
   xmlns:inkscape="http://www.inkscape.org/namespaces/inkscape"
   xmlns:sodipodi="http://sodipodi.sourceforge.net/DTD/sodipodi-0.dtd"
   xmlns:xlink="http://www.w3.org/1999/xlink"
   xmlns="http://www.w3.org/2000/svg"
   xmlns:svg="http://www.w3.org/2000/svg"
   xmlns:rdf="http://www.w3.org/1999/02/22-rdf-syntax-ns#"
   xmlns:cc="http://creativecommons.org/ns#"><defs
     id="defs4"><inkscape:path-effect
       effect="powermask"
       id="path-effect17"
       is_visible="true"
       lpeversion="1"
       uri="#mask-powermask-path-effect17"
       invert="false"
       hide_mask="false"
       background="true"
       background_color="#ffffffff" /><inkscape:path-effect
       effect="powermask"
       id="path-effect16"
       is_visible="true"
       lpeversion="1"
       uri="#mask-powermask-path-effect16"
       invert="false"
       hide_mask="false"
       background="true"
       background_color="#ffffffff" /><inkscape:path-effect
       effect="powermask"
       id="path-effect15"
       is_visible="true"
       lpeversion="1"
       uri="#mask-powermask-path-effect15"
       invert="false"
       hide_mask="false"
       background="true"
       background_color="#ffffffff" /><mask
       maskUnits="userSpaceOnUse"
       id="mask-powermask-path-effect17"><path
         id="mask-powermask-path-effect17_box"
         style="fill:#ffffff;fill-opacity:1"
         d="m -2.25,6.1340298 h 22.5 V 25.63403 h -22.5 z" /><path
         id="path17"
         style="fill:#00000a;fill-opacity:1;stroke-width:0.848374"
         inkscape:label="outline"
         sodipodi:type="inkscape:offset"
         inkscape:radius="2.0929105"
         inkscape:original="M 16 6.3183594 L 13.595703 13.714844 L 5.8203125 13.714844 L 12.111328 18.285156 L 9.7070312 25.681641 L 16 21.109375 L 22.291016 25.681641 L 19.888672 18.285156 L 26.179688 13.714844 L 18.404297 13.714844 L 16 6.3183594 z "
         transform="matrix(0.59409179,0,0,0.59409179,-0.5054686,-3.9194042)"
         d="M 16,4.2265625 A 2.0931198,2.0931198 0 0 0 14.009766,5.671875 l -1.933594,5.949219 H 5.8203125 a 2.0931198,2.0931198 0 0 0 -1.2304688,3.787109 l 5.0605469,3.675781 -1.9335937,5.951172 A 2.0931198,2.0931198 0 0 0 10.9375,27.375 L 16,23.697266 21.060547,27.375 a 2.0931198,2.0931198 0 0 0 3.220703,-2.339844 l -1.931641,-5.951172 5.060547,-3.675781 A 2.0931198,2.0931198 0 0 0 26.179687,11.621094 H 19.923828 L 17.990234,5.671875 A 2.0931198,2.0931198 0 0 0 16,4.2265625 Z" /></mask><filter
       id="mask-powermask-path-effect17_inverse"
       inkscape:label="filtermask-powermask-path-effect17"
       style="color-interpolation-filters:sRGB"
       height="100"
       width="100"
       x="-50"
       y="-50"><feColorMatrix
         id="mask-powermask-path-effect17_primitive1"
         values="1"
         type="saturate"
         result="fbSourceGraphic" /><feColorMatrix
         id="mask-powermask-path-effect17_primitive2"
         values="-1 0 0 0 1 0 -1 0 0 1 0 0 -1 0 1 0 0 0 1 0 "
         in="fbSourceGraphic" /></filter></defs><sodipodi:namedview
     id="namedview4"
     pagecolor="#1a1a1a"
     bordercolor="#000000"
     borderopacity="0.25"
     inkscape:showpageshadow="2"
     inkscape:pageopacity="0.0"
     inkscape:pagecheckerboard="0"
     inkscape:deskcolor="#d1d1d1"
     inkscape:zoom="22.627417"
     inkscape:cx="17.743961"
     inkscape:cy="17.169437"
     inkscape:window-width="2520"
     inkscape:window-height="1288"
     inkscape:window-x="0"
     inkscape:window-y="0"
     inkscape:window-maximized="1"
     inkscape:current-layer="g10"
     inkscape:export-bgcolor="#1a1a1aff" /><g
     id="g7"
     inkscape:label="guncad-index"
     transform="translate(7,3.1159702)"><g
       id="g10"
       mask="url(#mask-powermask-path-effect17)"
       inkscape:path-effect="#path-effect17"
       inkscape:label="body"
       style="display:inline"><g
         id="g4"
         inkscape:label="heroicons-database"
         transform="translate(-3,3.4337337)"
         style="display:none"><path
           d="M 21,6.375 C 21,9.06739 16.9706,11.25 12,11.25 7.02944,11.25 3,9.06739 3,6.375 3,3.68261 7.02944,1.5 12,1.5 c 4.9706,0 9,2.18261 9,4.875 z"
           fill="#0F172A"
           id="path1"
           style="fill:#ffffff;fill-opacity:1"
           inkscape:original-d="M 21,6.375 C 21,9.06739 16.9706,11.25 12,11.25 7.02944,11.25 3,9.06739 3,6.375 3,3.68261 7.02944,1.5 12,1.5 c 4.9706,0 9,2.18261 9,4.875 z" /><path
           d="m 12,12.75 c 2.6852,0 5.1905,-0.5863 7.0784,-1.6089 0.69,-0.3738 1.3464,-0.8368 1.8963,-1.38436 C 20.9915,9.87831 21,10.0011 21,10.125 21,12.8174 16.9706,15 12,15 7.02944,15 3,12.8174 3,10.125 3,10.0011 3.00853,9.8783 3.02529,9.75674 3.57523,10.3043 4.23162,10.7673 4.92161,11.1411 6.80949,12.1637 9.31481,12.75 12,12.75 Z"
           fill="#0F172A"
           id="path2"
           style="fill:#ffffff;fill-opacity:1"
           inkscape:original-d="m 12,12.75 c 2.6852,0 5.1905,-0.5863 7.0784,-1.6089 0.69,-0.3738 1.3464,-0.8368 1.8963,-1.38436 C 20.9915,9.87831 21,10.0011 21,10.125 21,12.8174 16.9706,15 12,15 7.02944,15 3,12.8174 3,10.125 3,10.0011 3.00853,9.8783 3.02529,9.75674 3.57523,10.3043 4.23162,10.7673 4.92161,11.1411 6.80949,12.1637 9.31481,12.75 12,12.75 Z" /><path
           d="m 12,16.5 c 2.6852,0 5.1905,-0.5863 7.0784,-1.6089 0.69,-0.3738 1.3464,-0.8368 1.8963,-1.3844 C 20.9915,13.6283 21,13.7511 21,13.875 c 0,2.6924 -4.0294,4.875 -9,4.875 -4.97056,0 -9,-2.1826 -9,-4.875 0,-0.1239 0.00853,-0.2467 0.02529,-0.3683 0.54994,0.5476 1.20633,1.0106 1.89632,1.3844 C 6.80949,15.9137 9.31481,16.5 12,16.5 Z"
           fill="#0F172A"
           id="path3"
           style="fill:#ffffff;fill-opacity:1"
           inkscape:original-d="m 12,16.5 c 2.6852,0 5.1905,-0.5863 7.0784,-1.6089 0.69,-0.3738 1.3464,-0.8368 1.8963,-1.3844 C 20.9915,13.6283 21,13.7511 21,13.875 c 0,2.6924 -4.0294,4.875 -9,4.875 -4.97056,0 -9,-2.1826 -9,-4.875 0,-0.1239 0.00853,-0.2467 0.02529,-0.3683 0.54994,0.5476 1.20633,1.0106 1.89632,1.3844 C 6.80949,15.9137 9.31481,16.5 12,16.5 Z" /><path
           d="m 12,20.25 c 2.6852,0 5.1905,-0.5863 7.0784,-1.6089 0.69,-0.3738 1.3464,-0.8368 1.8963,-1.3844 C 20.9915,17.3783 21,17.5011 21,17.625 21,20.3174 16.9706,22.5 12,22.5 7.02944,22.5 3,20.3174 3,17.625 3,17.5011 3.00853,17.3783 3.02529,17.2567 3.57523,17.8043 4.23162,18.2673 4.92161,18.6411 6.80949,19.6637 9.31481,20.25 12,20.25 Z"
           fill="#0F172A"
           id="path4"
           style="fill:#ffffff;fill-opacity:1"
           inkscape:original-d="m 12,20.25 c 2.6852,0 5.1905,-0.5863 7.0784,-1.6089 0.69,-0.3738 1.3464,-0.8368 1.8963,-1.3844 C 20.9915,17.3783 21,17.5011 21,17.625 21,20.3174 16.9706,22.5 12,22.5 7.02944,22.5 3,20.3174 3,17.625 3,17.5011 3.00853,17.3783 3.02529,17.2567 3.57523,17.8043 4.23162,18.2673 4.92161,18.6411 6.80949,19.6637 9.31481,20.25 12,20.25 Z" /></g><g
         style="display:none;fill:#ffffff;fill-opacity:1"
         id="g17"
         transform="matrix(0.08974483,0,0,0.08974483,-5.3591728,3.665926)"
         inkscape:label="lbry-logo"><path
           d="M 296.05,85.9 V 100 l -138.8,85.3 -104.6,-51.3 0.2,-7.9 104,51.2 132.2,-81.2 V 90.3 L 164.25,30.1 25.05,116.2 v 38.5 l 131.8,65.2 137.6,-84.4 3.9,6 -141.1,86.4 -139.2,-68.8 v -46.8 l 145.8,-90.2 z"
           id="path1-9"
           inkscape:original-d="M 296.05,85.9 V 100 l -138.8,85.3 -104.6,-51.3 0.2,-7.9 104,51.2 132.2,-81.2 V 90.3 L 164.25,30.1 25.05,116.2 v 38.5 l 131.8,65.2 137.6,-84.4 3.9,6 -141.1,86.4 -139.2,-68.8 v -46.8 l 145.8,-90.2 z"
           style="fill:#ffffff;fill-opacity:1" /><path
           d="m 294.25,150.9 2,-12.6 -12.2,-2.1 0.8,-4.9 17.1,2.9 -2.8,17.5 z"
           id="path2-1"
           inkscape:original-d="m 294.25,150.9 2,-12.6 -12.2,-2.1 0.8,-4.9 17.1,2.9 -2.8,17.5 z"
           style="fill:#ffffff;fill-opacity:1" /></g><g
         id="g3"
         inkscape:label="heroicons-book"
         transform="translate(-3,2.8630343)"
         style="display:none;stroke:#ffffff;stroke-opacity:1"><path
           stroke-linecap="round"
           stroke-linejoin="round"
           d="M 12,6.042 A 8.967,8.967 0 0 0 6,3.75 c -1.052,0 -2.062,0.18 -3,0.512 v 14.25 A 8.987,8.987 0 0 1 6,18 c 2.305,0 4.408,0.867 6,2.292 M 12,6.042 A 8.966,8.966 0 0 1 18,3.75 c 1.052,0 2.062,0.18 3,0.512 v 14.25 A 8.987,8.987 0 0 0 18,18 8.967,8.967 0 0 0 12,20.292 m 0,-14.25 v 14.25"
           id="path1-67"
           inkscape:original-d="M 12,6.042 A 8.967,8.967 0 0 0 6,3.75 c -1.052,0 -2.062,0.18 -3,0.512 v 14.25 A 8.987,8.987 0 0 1 6,18 c 2.305,0 4.408,0.867 6,2.292 M 12,6.042 A 8.966,8.966 0 0 1 18,3.75 c 1.052,0 2.062,0.18 3,0.512 v 14.25 A 8.987,8.987 0 0 0 18,18 8.967,8.967 0 0 0 12,20.292 m 0,-14.25 v 14.25"
           style="stroke:#ffffff;stroke-opacity:1" /></g><g
         style="display:none;enable-background:new"
         id="g11"
         transform="matrix(0.02864032,0,0,0.02864032,-4.6218982,7.3185988)"
         inkscape:label="lemmy"><g
           inkscape:label="Layer 1"
           id="layer1"
           transform="translate(-36.380379,-256.78621)"
           style="display:inline"><path
             style="color:#000000;font-style:normal;font-variant:normal;font-weight:normal;font-stretch:normal;font-size:medium;line-height:normal;font-family:sans-serif;font-variant-ligatures:normal;font-variant-position:normal;font-variant-caps:normal;font-variant-numeric:normal;font-variant-alternates:normal;font-feature-settings:normal;text-indent:0;text-align:start;text-decoration:none;text-decoration-line:none;text-decoration-style:solid;text-decoration-color:#000000;letter-spacing:normal;word-spacing:normal;text-transform:none;writing-mode:lr-tb;direction:ltr;text-orientation:mixed;dominant-baseline:auto;baseline-shift:baseline;text-anchor:start;white-space:normal;shape-padding:0;clip-rule:nonzero;display:inline;overflow:visible;visibility:visible;opacity:1;isolation:auto;mix-blend-mode:normal;color-interpolation:sRGB;color-interpolation-filters:linearRGB;solid-color:#000000;solid-opacity:1;fill:none;fill-opacity:1;fill-rule:nonzero;stroke:#ffffff;stroke-width:28.0025;stroke-linecap:round;stroke-linejoin:round;stroke-miterlimit:4;stroke-dasharray:none;stroke-dashoffset:0;stroke-opacity:1;color-rendering:auto;image-rendering:auto;shape-rendering:auto;text-rendering:auto;enable-background:accumulate"
             d="m 167.03908,270.78735 c -0.94784,-0.002 -1.8939,0.004 -2.83789,0.0215 -4.31538,0.0778 -8.58934,0.3593 -12.8125,0.8457 -33.78522,3.89116 -64.215716,21.86394 -82.871086,53.27344 -18.27982,30.77718 -22.77749,64.66635 -13.46094,96.06837 9.31655,31.40203 31.88488,59.93174 65.296886,82.5332 0.20163,0.13618 0.40678,0.26709 0.61523,0.39258 28.65434,17.27768 57.18167,28.93179 87.74218,34.95508 -0.74566,12.61339 -0.72532,25.5717 0.082,38.84375 2.43989,40.10943 16.60718,77.03742 38.0957,109.67187 l -77.00781,31.4375 c -8.30605,3.25932 -12.34178,12.68234 -8.96967,20.94324 3.37211,8.2609 12.84919,12.16798 21.06342,8.68371 l 84.69727,-34.57617 c 15.70675,18.72702 33.75346,35.68305 53.12109,50.57032 0.74013,0.56891 1.4904,1.12236 2.23437,1.68554 l -49.61132,65.69141 c -5.45446,7.0474 -4.10058,17.19288 3.01098,22.5634 7.11156,5.37052 17.24028,3.89649 22.52612,-3.27824 l 50.38672,-66.71876 c 27.68572,17.53469 57.07524,31.20388 86.07227,40.25196 14.88153,27.28008 43.96965,44.64648 77.58789,44.64648 33.93762,0 63.04252,-18.68693 77.80082,-45.4375 28.7072,-9.21295 57.7527,-22.93196 85.1484,-40.40234 l 51.0977,67.66016 c 5.2858,7.17473 15.4145,8.64876 22.5261,3.27824 7.1115,-5.37052 8.4654,-15.516 3.011,-22.5634 l -50.3614,-66.68555 c 0.334,-0.25394 0.6727,-0.50077 1.0059,-0.75586 19.1376,-14.64919 37.0259,-31.28581 52.7031,-49.63476 l 82.5625,33.70507 c 8.2143,3.48427 17.6913,-0.42281 21.0634,-8.68371 3.3722,-8.2609 -0.6636,-17.68392 -8.9696,-20.94324 l -74.5391,-30.42773 c 22.1722,-32.82971 37.0383,-70.03397 40.1426,-110.46094 1.0253,-13.35251 1.2292,-26.42535 0.6387,-39.17578 30.3557,-6.05408 58.7164,-17.66833 87.2011,-34.84375 0.2085,-0.12549 0.4136,-0.2564 0.6153,-0.39258 33.412,-22.60147 55.9803,-51.13117 65.2968,-82.5332 9.3166,-31.40202 4.8189,-65.29118 -13.4609,-96.06837 -18.6553,-31.40951 -49.0859,-49.38228 -82.8711,-53.27344 -4.2231,-0.4864 -8.4971,-0.76791 -12.8125,-0.8457 -30.2077,-0.54448 -62.4407,8.82427 -93.4316,26.71484 -22.7976,13.16063 -43.3521,33.31423 -59.4375,55.30469 -44.9968,-25.75094 -103.5444,-40.25065 -175.4785,-41.43945 -6.4522,-0.10663 -13.0125,-0.10696 -19.67974,0.002 -80.18875,1.30929 -144.38284,16.5086 -192.87109,43.9922 -0.11914,-0.19111 -0.24287,-0.37932 -0.37109,-0.56446 -16.29,-22.764 -37.41085,-43.73706 -60.89649,-57.29493 -30.02247,-17.33149 -61.21051,-26.66489 -90.59375,-26.73633 z"
             id="path817-3"
             inkscape:connector-curvature="0"
             sodipodi:nodetypes="cccssccccccscccccscccscccscccccsccscccssccscscccscc"
             inkscape:label="white-border"
             sodipodi:insensitive="true"
             inkscape:original-d="m 167.03908,270.78735 c -0.94784,-0.002 -1.8939,0.004 -2.83789,0.0215 -4.31538,0.0778 -8.58934,0.3593 -12.8125,0.8457 -33.78522,3.89116 -64.215716,21.86394 -82.871086,53.27344 -18.27982,30.77718 -22.77749,64.66635 -13.46094,96.06837 9.31655,31.40203 31.88488,59.93174 65.296886,82.5332 0.20163,0.13618 0.40678,0.26709 0.61523,0.39258 28.65434,17.27768 57.18167,28.93179 87.74218,34.95508 -0.74566,12.61339 -0.72532,25.5717 0.082,38.84375 2.43989,40.10943 16.60718,77.03742 38.0957,109.67187 l -77.00781,31.4375 c -8.30605,3.25932 -12.34178,12.68234 -8.96967,20.94324 3.37211,8.2609 12.84919,12.16798 21.06342,8.68371 l 84.69727,-34.57617 c 15.70675,18.72702 33.75346,35.68305 53.12109,50.57032 0.74013,0.56891 1.4904,1.12236 2.23437,1.68554 l -49.61132,65.69141 c -5.45446,7.0474 -4.10058,17.19288 3.01098,22.5634 7.11156,5.37052 17.24028,3.89649 22.52612,-3.27824 l 50.38672,-66.71876 c 27.68572,17.53469 57.07524,31.20388 86.07227,40.25196 14.88153,27.28008 43.96965,44.64648 77.58789,44.64648 33.93762,0 63.04252,-18.68693 77.80082,-45.4375 28.7072,-9.21295 57.7527,-22.93196 85.1484,-40.40234 l 51.0977,67.66016 c 5.2858,7.17473 15.4145,8.64876 22.5261,3.27824 7.1115,-5.37052 8.4654,-15.516 3.011,-22.5634 l -50.3614,-66.68555 c 0.334,-0.25394 0.6727,-0.50077 1.0059,-0.75586 19.1376,-14.64919 37.0259,-31.28581 52.7031,-49.63476 l 82.5625,33.70507 c 8.2143,3.48427 17.6913,-0.42281 21.0634,-8.68371 3.3722,-8.2609 -0.6636,-17.68392 -8.9696,-20.94324 l -74.5391,-30.42773 c 22.1722,-32.82971 37.0383,-70.03397 40.1426,-110.46094 1.0253,-13.35251 1.2292,-26.42535 0.6387,-39.17578 30.3557,-6.05408 58.7164,-17.66833 87.2011,-34.84375 0.2085,-0.12549 0.4136,-0.2564 0.6153,-0.39258 33.412,-22.60147 55.9803,-51.13117 65.2968,-82.5332 9.3166,-31.40202 4.8189,-65.29118 -13.4609,-96.06837 -18.6553,-31.40951 -49.0859,-49.38228 -82.8711,-53.27344 -4.2231,-0.4864 -8.4971,-0.76791 -12.8125,-0.8457 -30.2077,-0.54448 -62.4407,8.82427 -93.4316,26.71484 -22.7976,13.16063 -43.3521,33.31423 -59.4375,55.30469 -44.9968,-25.75094 -103.5444,-40.25065 -175.4785,-41.43945 -6.4522,-0.10663 -13.0125,-0.10696 -19.67974,0.002 -80.18875,1.30929 -144.38284,16.5086 -192.87109,43.9922 -0.11914,-0.19111 -0.24287,-0.37932 -0.37109,-0.56446 -16.29,-22.764 -37.41085,-43.73706 -60.89649,-57.29493 -30.02247,-17.33149 -61.21051,-26.66489 -90.59375,-26.73633 z" /><path
             id="path1087"
             style="display:inline;opacity:1;fill:#ffffff;fill-opacity:1;stroke:#000000;stroke-width:28;stroke-linecap:round;stroke-linejoin:round;stroke-miterlimit:4;stroke-dasharray:none;stroke-opacity:1"
             d="m 716.85595,362.96478 c 15.29075,-21.36763 35.36198,-41.10921 56.50979,-53.31749 66.66377,-38.48393 137.02617,-33.22172 170.08018,22.43043 33.09493,55.72093 14.98656,117.48866 -47.64399,159.85496 -31.95554,19.26819 -62.93318,30.92309 -97.22892,35.54473 M 307.14407,362.96478 C 291.85332,341.59715 271.78209,321.85557 250.63429,309.64729 183.97051,271.16336 113.60811,276.42557 80.554051,332.07772 47.459131,387.79865 65.56752,449.56638 128.19809,491.93268 c 31.95554,19.26819 62.93319,30.92309 97.22893,35.54473"
             inkscape:connector-curvature="0"
             inkscape:label="ears"
             sodipodi:insensitive="true"
             inkscape:original-d="m 716.85595,362.96478 c 15.29075,-21.36763 35.36198,-41.10921 56.50979,-53.31749 66.66377,-38.48393 137.02617,-33.22172 170.08018,22.43043 33.09493,55.72093 14.98656,117.48866 -47.64399,159.85496 -31.95554,19.26819 -62.93318,30.92309 -97.22892,35.54473 M 307.14407,362.96478 C 291.85332,341.59715 271.78209,321.85557 250.63429,309.64729 183.97051,271.16336 113.60811,276.42557 80.554051,332.07772 47.459131,387.79865 65.56752,449.56638 128.19809,491.93268 c 31.95554,19.26819 62.93319,30.92309 97.22893,35.54473" /><path
             style="display:inline;opacity:1;fill:#ffffff;fill-opacity:1;stroke:#000000;stroke-width:28;stroke-linecap:round;stroke-linejoin:round;stroke-miterlimit:4;stroke-dasharray:none;stroke-opacity:1"
             d="M 801.23205,576.8699 C 812.73478,427.06971 720.58431,321.98291 511.99999,325.38859 303.41568,328.79426 213.71393,428.0311 222.76794,576.8699 c 8.64289,142.08048 176.80223,246.40388 288.12038,246.40388 111.31815,0 279.45076,-104.5447 290.34373,-246.40388 z"
             id="path969"
             inkscape:connector-curvature="0"
             sodipodi:nodetypes="szszs"
             inkscape:label="head"
             sodipodi:insensitive="true"
             inkscape:original-d="M 801.23205,576.8699 C 812.73478,427.06971 720.58431,321.98291 511.99999,325.38859 303.41568,328.79426 213.71393,428.0311 222.76794,576.8699 c 8.64289,142.08048 176.80223,246.40388 288.12038,246.40388 111.31815,0 279.45076,-104.5447 290.34373,-246.40388 z" /><path
             id="path1084"
             style="display:inline;opacity:1;fill:#000000;fill-opacity:1;stroke:#000000;stroke-width:0;stroke-linecap:round;stroke-linejoin:round;stroke-miterlimit:4;stroke-dasharray:none;stroke-opacity:1"
             d="m 610.4991,644.28932 c 0,23.11198 18.70595,41.84795 41.78091,41.84795 23.07495,0 41.7809,-18.73597 41.7809,-41.84795 0,-23.112 -18.70594,-41.84796 -41.7809,-41.84796 -23.07496,0 -41.78091,18.73596 -41.78091,41.84796 z m -280.56002,0 c 0,23.32492 18.87829,42.23352 42.16586,42.23352 23.28755,0 42.16585,-18.9086 42.16585,-42.23352 0,-23.32494 -18.87829,-42.23353 -42.16585,-42.23353 -23.28757,0 -42.16586,18.90859 -42.16586,42.23353 z"
             inkscape:connector-curvature="0"
             inkscape:label="eyes"
             sodipodi:nodetypes="ssssssssss"
             sodipodi:insensitive="true"
             inkscape:original-d="m 610.4991,644.28932 c 0,23.11198 18.70595,41.84795 41.78091,41.84795 23.07495,0 41.7809,-18.73597 41.7809,-41.84795 0,-23.112 -18.70594,-41.84796 -41.7809,-41.84796 -23.07496,0 -41.78091,18.73596 -41.78091,41.84796 z m -280.56002,0 c 0,23.32492 18.87829,42.23352 42.16586,42.23352 23.28755,0 42.16585,-18.9086 42.16585,-42.23352 0,-23.32494 -18.87829,-42.23353 -42.16585,-42.23353 -23.28757,0 -42.16586,18.90859 -42.16586,42.23353 z" /><path
             id="path1008"
             style="display:inline;opacity:1;fill:none;stroke:#000000;stroke-width:32;stroke-linecap:round;stroke-linejoin:miter;stroke-miterlimit:4;stroke-dasharray:none;stroke-opacity:1"
             d="m 339.72919,769.2467 -54.54422,72.22481 m 399.08582,-72.22481 54.54423,72.22481 M 263.68341,697.82002 175.92752,733.64353 m 579.85765,-35.82351 87.7559,35.82351"
             inkscape:connector-curvature="0"
             inkscape:label="whiskers"
             sodipodi:nodetypes="cccccccc"
             sodipodi:insensitive="true"
             inkscape:original-d="m 339.72919,769.2467 -54.54422,72.22481 m 399.08582,-72.22481 54.54423,72.22481 M 263.68341,697.82002 175.92752,733.64353 m 579.85765,-35.82351 87.7559,35.82351" /><path
             style="display:inline;opacity:1;fill:#ffffff;fill-opacity:1;stroke:#000000;stroke-width:28;stroke-linecap:round;stroke-linejoin:round;stroke-miterlimit:4;stroke-dasharray:none;stroke-opacity:1"
             d="m 512.00082,713.08977 c -45.86417,0 -75.13006,31.84485 -74.14159,71.10084 1.07048,42.51275 32.46865,71.10323 74.14159,71.10323 41.67296,0 74.05118,-32.99608 74.14161,-71.10323 0.0932,-39.26839 -28.27742,-71.10084 -74.14161,-71.10084 z"
             id="path1115"
             inkscape:connector-curvature="0"
             inkscape:label="nose"
             sodipodi:nodetypes="zszsz"
             sodipodi:insensitive="true"
             inkscape:original-d="m 512.00082,713.08977 c -45.86417,0 -75.13006,31.84485 -74.14159,71.10084 1.07048,42.51275 32.46865,71.10323 74.14159,71.10323 41.67296,0 74.05118,-32.99608 74.14161,-71.10323 0.0932,-39.26839 -28.27742,-71.10084 -74.14161,-71.10084 z" /></g></g><g
         id="g12"
         inkscape:label="heroicons-server-stack"
         style="display:none;fill:#ffffff;fill-opacity:1"
         transform="translate(-14,7.4062499)"><path
           d="m 16.507,-2.0679702 a 3,3 0 0 1 2.278,-1.048 h 8.43 a 3,3 0 0 1 2.278,1.048 l 1.722,2.008 a 4.533,4.533 0 0 0 -0.715,-0.056 h -15 c -0.243,0 -0.482,0.02 -0.715,0.056 z"
           id="path1-36"
           inkscape:original-d="m 16.507,-2.0679702 a 3,3 0 0 1 2.278,-1.048 h 8.43 a 3,3 0 0 1 2.278,1.048 l 1.722,2.008 a 4.533,4.533 0 0 0 -0.715,-0.056 h -15 c -0.243,0 -0.482,0.02 -0.715,0.056 z"
           style="fill:#ffffff;fill-opacity:1" /><path
           fill-rule="evenodd"
           d="m 12.5,4.3840298 a 3,3 0 0 1 3,-3 h 15 a 3.0000001,3.0000001 0 1 1 0,6.0000002 h -15 a 3,3 0 0 1 -3,-3.0000002 z m 15,0 a 0.75,0.75 0 1 1 -1.5,0 0.75,0.75 0 0 1 1.5,0 z m 2.25,0.75 a 0.75,0.75 0 1 0 0,-1.5 0.75,0.75 0 0 0 0,1.5 z M 15.5,8.88403 a 3,3 0 1 0 0,6 h 15 a 3,3 0 1 0 0,-6 z m 11.25,3.75 a 0.75,0.75 0 1 0 0,-1.5 0.75,0.75 0 0 0 0,1.5 z m 3.75,-0.75 a 0.75,0.75 0 1 1 -1.5,0 0.75,0.75 0 0 1 1.5,0 z"
           clip-rule="evenodd"
           id="path2-7"
           inkscape:original-d="m 12.5,4.3840298 a 3,3 0 0 1 3,-3 h 15 a 3.0000001,3.0000001 0 1 1 0,6.0000002 h -15 a 3,3 0 0 1 -3,-3.0000002 z m 15,0 a 0.75,0.75 0 1 1 -1.5,0 0.75,0.75 0 0 1 1.5,0 z m 2.25,0.75 a 0.75,0.75 0 1 0 0,-1.5 0.75,0.75 0 0 0 0,1.5 z M 15.5,8.88403 a 3,3 0 1 0 0,6 h 15 a 3,3 0 1 0 0,-6 z m 11.25,3.75 a 0.75,0.75 0 1 0 0,-1.5 0.75,0.75 0 0 0 0,1.5 z m 3.75,-0.75 a 0.75,0.75 0 1 1 -1.5,0 0.75,0.75 0 0 1 1.5,0 z"
           style="fill:#ffffff;fill-opacity:1" /></g><g
         id="g13"
         inkscape:label="heroicons-folder"
         transform="translate(0,3.6464464)"
         style="display:inline;stroke:#ffffff;stroke-opacity:1"><path
           stroke-linecap="round"
           stroke-linejoin="round"
           d="m -0.75,12.63403 v -0.75 A 2.25,2.25 0 0 1 1.5,9.6340298 h 15 a 2.25,2.25 0 0 1 2.25,2.2500002 v 0.75 m -8.69,-6.4400002 -2.12,-2.12 a 1.5,1.5 0 0 0 -1.061,-0.44 H 1.5 a 2.25,2.25 0 0 0 -2.25,2.25 V 17.88403 a 2.25,2.25 0 0 0 2.25,2.25 h 15 a 2.25,2.25 0 0 0 2.25,-2.25 V 8.8840298 a 2.25,2.25 0 0 0 -2.25,-2.25 h -5.379 a 1.5,1.5 0 0 1 -1.06,-0.44 z"
           id="path1-367"
           style="stroke:#ffffff;stroke-opacity:1"
           inkscape:original-d="m -0.75,12.63403 v -0.75 A 2.25,2.25 0 0 1 1.5,9.6340298 h 15 a 2.25,2.25 0 0 1 2.25,2.2500002 v 0.75 m -8.69,-6.4400002 -2.12,-2.12 a 1.5,1.5 0 0 0 -1.061,-0.44 H 1.5 a 2.25,2.25 0 0 0 -2.25,2.25 V 17.88403 a 2.25,2.25 0 0 0 2.25,2.25 h 15 a 2.25,2.25 0 0 0 2.25,-2.25 V 8.8840298 a 2.25,2.25 0 0 0 -2.25,-2.25 h -5.379 a 1.5,1.5 0 0 1 -1.06,-0.44 z" /></g></g><g
       id="g2"
       inkscape:label="overlays"
       transform="translate(-7,-3.1159702)"
       style="display:inline"><g
         style="display:none;fill:#000000;fill-opacity:1"
         id="g1"
         transform="matrix(0.5,0,0,0.5,3.75,17)"
         inkscape:label="terminal"><path
           id="path5"
           style="fill:#ffffff;fill-opacity:1"
           sodipodi:type="inkscape:offset"
           inkscape:radius="2.032932"
           inkscape:original="M 5.25 3 C 3.59315 3 2.25 4.34315 2.25 6 L 2.25 18 C 2.25 19.6569 3.59315 21 5.25 21 L 18.75 21 C 20.4069 21 21.75 19.6569 21.75 18 L 21.75 6 C 21.75 4.34315 20.4069 3 18.75 3 L 5.25 3 z M 10.5 11.25 L 13.5 11.25 C 13.9142 11.25 14.25 11.5858 14.25 12 C 14.25 12.4142 13.9142 12.75 13.5 12.75 L 10.5 12.75 C 10.0858 12.75 9.75 12.4142 9.75 12 C 9.75 11.5858 10.0858 11.25 10.5 11.25 z "
           d="M 5.25,0.96679688 C 2.4944657,0.96679688 0.21679688,3.2444657 0.21679688,6 v 12 c 0,2.755551 2.27770972,5.033203 5.03320312,5.033203 h 13.5 c 2.75551,0 5.033203,-2.277693 5.033203,-5.033203 V 6 c 0,-2.7554934 -2.277652,-5.03320312 -5.033203,-5.03320312 z"
           inkscape:label="terminal-outline" /><path
           fill-rule="evenodd"
           clip-rule="evenodd"
           d="m 2.25,6 c 0,-1.65685 1.34315,-3 3,-3 h 13.5 c 1.6569,0 3,1.34315 3,3 v 12 c 0,1.6569 -1.3431,3 -3,3 H 5.25 c -1.65685,0 -3,-1.3431 -3,-3 z m 3.96967,0.96967 c 0.29289,-0.29289 0.76777,-0.29289 1.06066,0 l 2.25,2.25 c 0.29289,0.29289 0.29289,0.76777 0,1.06063 l -2.25,2.25 c -0.29289,0.2929 -0.76777,0.2929 -1.06066,0 -0.29289,-0.2929 -0.29289,-0.7677 0,-1.0606 L 7.93934,9.75 6.21967,8.03033 c -0.29289,-0.29289 -0.29289,-0.76777 0,-1.06066 z M 10.5,11.25 c -0.4142,0 -0.75,0.3358 -0.75,0.75 0,0.4142 0.3358,0.75 0.75,0.75 h 3 c 0.4142,0 0.75,-0.3358 0.75,-0.75 0,-0.4142 -0.3358,-0.75 -0.75,-0.75 z"
           fill="#0f172a"
           id="path1-6"
           style="fill:#3786db;fill-opacity:1"
           inkscape:label="terminal" /></g><g
         style="display:none;fill:none;fill-opacity:1"
         id="g6"
         transform="translate(-1,1)"
         inkscape:label="lock-closed"><path
           id="path1-7"
           style="fill:#ffffff;fill-opacity:1;stroke-width:0.5"
           inkscape:label="lock-closed-outline"
           sodipodi:type="inkscape:offset"
           inkscape:radius="1.2406614"
           inkscape:original="M 9.25 15.25 C 7.800255 15.25 6.625 16.425255 6.625 17.875 L 6.625 19.375 C 5.796575 19.375 5.125 20.04655 5.125 20.875 L 5.125 24.25 C 5.125 25.07845 5.796575 25.75 6.625 25.75 L 11.875 25.75 C 12.70345 25.75 13.375 25.07845 13.375 24.25 L 13.375 20.875 C 13.375 20.04655 12.70345 19.375 11.875 19.375 L 11.875 17.875 C 11.875 16.425255 10.69975 15.25 9.25 15.25 z "
           d="m 9.25,14.009766 c -2.1202507,0 -3.8652344,1.744983 -3.8652344,3.865234 v 0.779297 c -0.8366425,0.472445 -1.5,1.203022 -1.5,2.220703 v 3.375 c 0,1.498937 1.2413273,2.740234 2.7402344,2.740234 h 5.25 c 1.498912,0 2.740234,-1.241322 2.740234,-2.740234 v -3.375 c 0,-1.017664 -0.663357,-1.748252 -1.5,-2.220703 V 17.875 c 0,-2.120248 -1.744981,-3.865234 -3.865234,-3.865234 z" /><path
           fill-rule="evenodd"
           clip-rule="evenodd"
           d="m 9.25,15.25 c -1.449745,0 -2.625,1.175255 -2.625,2.625 v 1.5 c -0.828425,0 -1.5,0.67155 -1.5,1.5 v 3.375 c 0,0.82845 0.671575,1.5 1.5,1.5 h 5.25 c 0.82845,0 1.5,-0.67155 1.5,-1.5 v -3.375 c 0,-0.82845 -0.67155,-1.5 -1.5,-1.5 v -1.5 c 0,-1.449745 -1.17525,-2.625 -2.625,-2.625 z m 1.875,4.125 v -1.5 C 11.125,16.839465 10.28555,16 9.25,16 8.214465,16 7.375,16.839465 7.375,17.875 v 1.5 z"
           fill="#0f172a"
           id="path6"
           style="fill:#eb573b;fill-opacity:1;stroke-width:0.5"
           inkscape:label="lock-closed" /></g><g
         id="g8"
         inkscape:label="flag"
         style="display:none"><path
           style="display:inline;fill:#6900ff;fill-opacity:1;stroke:#ffffff;stroke-width:0.5;stroke-opacity:1"
           sodipodi:type="inkscape:offset"
           inkscape:radius="0.40019527"
           inkscape:original="M 5.8222656 16.875 A 0.375 0.375 0 0 0 5.4472656 17.25 L 5.4472656 26.25 A 0.375 0.375 0 0 0 6.1972656 26.25 L 6.1972656 23.542969 L 7.296875 23.267578 A 4.125 4.125 0 0 1 10.142578 23.580078 L 10.197266 23.607422 A 4.875 4.875 0 0 0 13.494141 23.992188 L 15.050781 23.625 A 0.375 0.375 0 0 0 15.337891 23.21875 A 23.892 23.892 0 0 1 15.335938 18.050781 A 0.375 0.375 0 0 0 14.876953 17.646484 L 13.322266 18.011719 A 4.125 4.125 0 0 1 10.53125 17.685547 L 10.478516 17.658203 A 4.875 4.875 0 0 0 7.1152344 17.289062 L 6.1972656 17.519531 L 6.1972656 17.25 A 0.375 0.375 0 0 0 5.8222656 16.875 z "
           xlink:href="#path1-3"
           id="path8"
           inkscape:href="#path1-3"
           d="m 5.8222656,16.474609 c -0.4058913,0 -0.7753906,0.3695 -0.7753906,0.775391 v 9 c 0,0.405891 0.3694993,0.775391 0.7753906,0.775391 0.4058913,0 0.7753906,-0.3695 0.7753906,-0.775391 v -2.394531 l 0.796875,-0.199219 c 0.4196582,-0.104925 -0.2637366,0.04913 0.1601563,-0.03711 0.4238929,-0.08624 -0.2651865,0.03809 0.1621094,-0.0293 0.4272959,-0.06738 -0.2657982,0.02691 0.1640625,-0.02148 0.4298606,-0.04839 -0.2675195,0.01369 0.1640625,-0.01563 0.431582,-0.02931 -0.2683942,0.0024 0.1640625,-0.0078 0.4324566,-0.01017 -0.2664672,-0.009 0.1660156,0 0.4324828,0.009 -0.267598,-0.02032 0.1640625,0.0078 0.4316605,0.02813 -0.2659288,-0.03355 0.1640625,0.01367 0.4299913,0.04722 -0.263416,-0.04473 0.1640625,0.02148 0.4274785,0.06621 -0.2620176,-0.05578 0.1621094,0.0293 0.424127,0.08508 -0.2578341,-0.06667 0.1621094,0.03711 0.4199434,0.103777 -0.2567328,-0.0793 0.1582031,0.04297 0.4149359,0.122271 -0.2509112,-0.0917 0.1582031,0.04883 0.4091143,0.140526 -0.2481932,-0.101865 0.1542969,0.05664 0.4024896,0.158506 -0.2427325,-0.11172 0.1523437,0.06445 0.3950759,0.176174 -0.2384497,-0.123182 0.1484375,0.07031 l 0.054687,0.02734 c 1.092739,0.546252 2.379198,0.695955 3.56836,0.416015 l 1.55664,-0.367187 c 0.364882,-0.08557 0.634882,-0.465373 0.59375,-0.837891 -0.322221,-2.951463 0.24901,2.639151 -0.0332,-0.316406 -0.282213,-2.955557 0.21481,2.640749 -0.02734,-0.318359 -0.242154,-2.959109 0.178613,2.64571 -0.02344,-0.316407 -0.20205,-2.962117 0.142378,2.646223 -0.01953,-0.318359 -0.16191,-2.964582 0.106113,2.650097 -0.01563,-0.316406 -0.121739,-2.966503 0.06983,2.64952 -0.01172,-0.31836 -0.08155,-2.96788 0.03548,2.650353 -0.0059,-0.318359 -0.04134,-2.968712 -8.31e-4,2.65064 -0.002,-0.318359 -0.0011,-2.969 -0.03714,2.650383 0.002,-0.31836 0.03909,-2.968742 -0.07344,2.649582 0.0059,-0.318359 0.0793,-2.967941 -0.109731,2.648235 0.0098,-0.31836 0.119497,-2.966594 -0.144043,2.648298 0.01563,-0.316406 0.159669,-2.964703 -0.180279,2.64391 0.01953,-0.318359 0.199811,-2.962269 -0.21648,2.640931 0.02344,-0.31836 0.239917,-2.95929 -0.252635,2.639364 0.02734,-0.316406 0.279979,-2.955769 -0.286787,2.6353 0.0332,-0.316406 a 0.40023529,0.40023529 0 0 0 0,-0.002 c 0.02583,-0.245068 -0.07485,-0.499225 -0.259766,-0.66211 -0.184917,-0.162884 -0.449603,-0.228421 -0.689453,-0.171875 l -1.554687,0.365235 c -0.422094,0.09938 0.267808,-0.04775 -0.158203,0.0332 -0.426012,0.08095 0.268968,-0.03698 -0.160157,0.02539 -0.429125,0.06237 0.271273,-0.02219 -0.160156,0.02148 -0.431429,0.04368 0.270809,-0.01318 -0.162109,0.01172 -0.432919,0.0249 0.273435,-2.11e-4 -0.160156,0.0059 -0.433592,0.0061 0.271336,0.01081 -0.16211,-0.002 -0.433446,-0.01277 0.270373,0.02377 -0.162109,-0.0078 -0.432483,-0.03158 0.270546,0.03471 -0.160156,-0.01563 -0.430703,-0.05033 0.267954,0.04751 -0.160157,-0.02148 -0.42811,-0.06899 0.264554,0.05822 -0.160156,-0.0293 -0.42471,-0.08752 0.262305,0.07073 -0.158203,-0.03516 -0.420508,-0.105884 0.259262,0.08108 -0.15625,-0.04297 -0.415513,-0.124048 0.257389,0.0912 -0.152344,-0.05078 -0.409733,-0.141977 0.250836,0.102998 -0.152344,-0.05664 -0.403179,-0.159638 0.247429,0.114499 -0.148437,-0.0625 -0.385175,-0.172218 0.182333,0.09701 -0.142578,-0.06641 l -0.0039,-0.002 -0.04883,-0.02539 a 0.40023529,0.40023529 0 0 0 -0.0039,-0.002 C 9.5434826,16.743328 8.2266728,16.597991 7.0175781,16.900391 l -0.515625,0.128906 C 6.3929166,16.729302 6.1452128,16.474609 5.8222656,16.474609 Z" /><path
           fill-rule="evenodd"
           d="m 5.821605,16.875 a 0.375,0.375 0 0 1 0.375,0.375 v 0.27 l 0.9189999,-0.23 a 4.875,4.875 0 0 1 3.3625001,0.369 l 0.054,0.027 a 4.125,4.125 0 0 0 2.7895,0.326 l 1.555,-0.366 a 0.375,0.375 0 0 1 0.4585,0.405 23.892,23.892 0 0 0 0.0025,5.1685 0.375,0.375 0 0 1 -0.287,0.406 l -1.557,0.3665 a 4.875,4.875 0 0 1 -3.297,-0.385 l -0.054,-0.027 A 4.125,4.125 0 0 0 7.2976049,23.2675 L 6.196605,23.5425 V 26.25 a 0.375,0.375 0 0 1 -0.75,0 v -9 a 0.375,0.375 0 0 1 0.375,-0.375 z"
           clip-rule="evenodd"
           id="path1-3"
           style="display:inline;fill:#6900ff;fill-opacity:1;stroke:#ffffff;stroke-width:0.5;stroke-opacity:1" /></g></g><g
       id="g9"
       inkscape:label="star"
       style="display:inline"><g
         style="display:inline;fill:#ffffff;fill-opacity:1"
         id="g5"
         transform="matrix(0.59409179,0,0,0.59409179,-0.50546864,-3.9194042)"
         inkscape:label="pointed-star"><path
           d="m 16,6.3184345 2.403443,7.3969705 h 7.777042 l -6.291539,4.57019 2.402593,7.396971 L 16,21.109831 9.7076119,25.681717 12.111054,18.284747 5.819515,13.715405 h 7.777043 z"
           id="path7"
           style="fill:#ffffff;fill-opacity:1;stroke-width:0.848374"
           inkscape:label="star" /></g></g></g><metadata
     id="metadata1"><rdf:RDF><cc:Work
         rdf:about=""><cc:license
           rdf:resource="http://creativecommons.org/licenses/by-sa/4.0/" /></cc:Work><cc:License
         rdf:about="http://creativecommons.org/licenses/by-sa/4.0/"><cc:permits
           rdf:resource="http://creativecommons.org/ns#Reproduction" /><cc:permits
           rdf:resource="http://creativecommons.org/ns#Distribution" /><cc:requires
           rdf:resource="http://creativecommons.org/ns#Notice" /><cc:requires
           rdf:resource="http://creativecommons.org/ns#Attribution" /><cc:permits
           rdf:resource="http://creativecommons.org/ns#DerivativeWorks" /><cc:requires
           rdf:resource="http://creativecommons.org/ns#ShareAlike" /></cc:License></rdf:RDF></metadata></svg>
