<?xml version="1.0" encoding="UTF-8"?>
<svg id="b" fill="none" version="1.1" viewBox="0 0 32 32" xml:space="preserve" xmlns="http://www.w3.org/2000/svg"><defs id="c"><mask id="a" maskUnits="userSpaceOnUse"><path id="d" d="m-1 3.9337h20v23h-20z" fill="#fff"/><path id="e" transform="matrix(.59409 0 0 .59409 -.50547 -3.9194)" d="m16 4.2266a2.0931 2.0931 0 0 0-1.9902 1.4453l-1.9336 5.9492h-6.2559a2.0931 2.0931 0 0 0-1.2305 3.7871l5.0605 3.6758-1.9336 5.9512a2.0931 2.0931 0 0 0 3.2207 2.3398l5.0625-3.6777 5.0605 3.6777a2.0931 2.0931 0 0 0 3.2207-2.3398l-1.9316-5.9512 5.0605-3.6758a2.0931 2.0931 0 0 0-1.2305-3.7871h-6.2559l-1.9336-5.9492a2.0931 2.0931 0 0 0-1.9902-1.4453z" fill="#00000a" stroke-width=".84837"/></mask></defs><g id="f" transform="translate(7 3.116)"><g id="g" fill="#fff" mask="url(#a)"><g id="h" transform="translate(-3 3.4337)"><path id="i" d="m21 6.375c0 2.6924-4.0294 4.875-9 4.875-4.9706 0-9-2.1826-9-4.875s4.0294-4.875 9-4.875c4.9706 0 9 2.1826 9 4.875z"/><path id="j" d="m12 12.75c2.6852 0 5.1905-0.5863 7.0784-1.6089 0.69-0.3738 1.3464-0.8368 1.8963-1.3844 0.0168 0.12157 0.0253 0.24436 0.0253 0.36826 0 2.6924-4.0294 4.875-9 4.875-4.9706 0-9-2.1826-9-4.875 0-0.1239 0.00853-0.2467 0.02529-0.36826 0.54994 0.54756 1.2063 1.0106 1.8963 1.3844 1.8879 1.0226 4.3932 1.6089 7.0784 1.6089z"/><path id="k" d="m12 16.5c2.6852 0 5.1905-0.5863 7.0784-1.6089 0.69-0.3738 1.3464-0.8368 1.8963-1.3844 0.0168 0.1216 0.0253 0.2444 0.0253 0.3683 0 2.6924-4.0294 4.875-9 4.875-4.9706 0-9-2.1826-9-4.875 0-0.1239 0.00853-0.2467 0.02529-0.3683 0.54994 0.5476 1.2063 1.0106 1.8963 1.3844 1.8879 1.0226 4.3932 1.6089 7.0784 1.6089z"/><path id="l" d="m12 20.25c2.6852 0 5.1905-0.5863 7.0784-1.6089 0.69-0.3738 1.3464-0.8368 1.8963-1.3844 0.0168 0.1216 0.0253 0.2444 0.0253 0.3683 0 2.6924-4.0294 4.875-9 4.875-4.9706 0-9-2.1826-9-4.875 0-0.1239 0.00853-0.2467 0.02529-0.3683 0.54994 0.5476 1.2063 1.0106 1.8963 1.3844 1.8879 1.0226 4.3932 1.6089 7.0784 1.6089z"/></g><g id="m" transform="matrix(.089745 0 0 .089745 -5.3592 3.6659)" display="none"><path id="n" d="m296.05 85.9v14.1l-138.8 85.3-104.6-51.3 0.2-7.9 104 51.2 132.2-81.2v-5.8l-124.8-60.2-139.2 86.1v38.5l131.8 65.2 137.6-84.4 3.9 6-141.1 86.4-139.2-68.8v-46.8l145.8-90.2z"/><path id="o" d="m294.25 150.9 2-12.6-12.2-2.1 0.8-4.9 17.1 2.9-2.8 17.5z"/></g></g><g id="p" transform="translate(-7 -3.116)"><g id="q" transform="matrix(.5 0 0 .5 3.75 17)" display="none"><path id="r" d="m5.25 0.9668c-2.7555 0-5.0332 2.2777-5.0332 5.0332v12c0 2.7556 2.2777 5.0332 5.0332 5.0332h13.5c2.7555 0 5.0332-2.2777 5.0332-5.0332v-12c0-2.7555-2.2777-5.0332-5.0332-5.0332z" fill="#fff"/><path id="s" d="m2.25 6c0-1.6568 1.3432-3 3-3h13.5c1.6569 0 3 1.3432 3 3v12c0 1.6569-1.3431 3-3 3h-13.5c-1.6568 0-3-1.3431-3-3zm3.9697 0.96967c0.29289-0.29289 0.76777-0.29289 1.0607 0l2.25 2.25c0.29289 0.29289 0.29289 0.76777 0 1.0606l-2.25 2.25c-0.29289 0.2929-0.76777 0.2929-1.0607 0s-0.29289-0.7677 0-1.0606l1.7197-1.7197-1.7197-1.7197c-0.29289-0.29289-0.29289-0.76777 0-1.0607zm4.2803 4.2803c-0.4142 0-0.75 0.3358-0.75 0.75s0.3358 0.75 0.75 0.75h3c0.4142 0 0.75-0.3358 0.75-0.75s-0.3358-0.75-0.75-0.75z" clip-rule="evenodd" fill="#3786db" fill-rule="evenodd"/></g><g id="t" transform="translate(-1,1)" display="none" stroke-width=".5"><path id="u" d="m9.25 14.01c-2.1203 0-3.8652 1.745-3.8652 3.8652v0.7793c-0.83664 0.47244-1.5 1.203-1.5 2.2207v3.375c0 1.4989 1.2413 2.7402 2.7402 2.7402h5.25c1.4989 0 2.7402-1.2413 2.7402-2.7402v-3.375c0-1.0177-0.66336-1.7483-1.5-2.2207v-0.7793c0-2.1202-1.745-3.8652-3.8652-3.8652z" fill="#fff"/><path id="v" d="m9.25 15.25c-1.4497 0-2.625 1.1753-2.625 2.625v1.5c-0.82842 0-1.5 0.67155-1.5 1.5v3.375c0 0.82845 0.67158 1.5 1.5 1.5h5.25c0.82845 0 1.5-0.67155 1.5-1.5v-3.375c0-0.82845-0.67155-1.5-1.5-1.5v-1.5c0-1.4497-1.1752-2.625-2.625-2.625zm1.875 4.125v-1.5c0-1.0355-0.83945-1.875-1.875-1.875-1.0355 0-1.875 0.83946-1.875 1.875v1.5z" clip-rule="evenodd" fill="#eb573b" fill-rule="evenodd"/></g></g><g id="w"><g id="x" transform="matrix(.59409 0 0 .59409 -.50547 -3.9194)" fill="#fff"><path id="y" d="m16 6.3184 2.4034 7.397h7.777l-6.2915 4.5702 2.4026 7.397-6.2915-4.5727-6.2924 4.5719 2.4034-7.397-6.2915-4.5693h7.777z" fill="#fff" stroke-width=".84837"/></g></g></g></svg>
